<?xml version="1.0" ?><svg id="Capa_1" style="enable-background:new 0 0 512 512;" version="1.1" viewBox="0 0 512 512" xml:space="preserve" xmlns="http://www.w3.org/2000/svg" xmlns:xlink="http://www.w3.org/1999/xlink"><g><path d="M342,53H84.635C77.717,41.048,64.802,33,50,33c-11.04,0-21.04,4.48-28.28,11.72S10,61.96,10,73   v387.97h0.01C10.56,439.35,28.26,422,50,422c22.09,0,40,17.91,40,40h229h23c11.05,0,20-8.95,20-20V73C362,61.95,353.05,53,342,53z" style="fill:#C0E3F0;"/><path d="M482,382v15.78c0,15.79-4.68,31.23-13.44,44.37L442,482l-26.56-39.85   c-8.76-13.14-13.44-28.58-13.44-44.37V382H482z" style="fill:#C0E3F0;"/></g><g><polygon points="462,156 436,156 402,156 402,382 482,382 482,246 482,236 482,156  " style="fill:#4DBBEB;"/><path d="M462,73c11.05,0,20,8.95,20,20c-11.05,0-20,8.95-20,20h-60V93c0-11.05,8.95-20,20-20H462z" style="fill:#4DBBEB;"/></g><g><path d="M496.14,98.86C492.52,95.24,487.52,93,482,93c-11.05,0-20,8.95-20,20h-60v43h60v40v20   c0,11.05,8.95,20,20,20s20-8.95,20-20v-20v-83C502,107.48,499.76,102.48,496.14,98.86z" style="fill:#C0E3F0;"/><path d="M462,30v43h-40V30c0-11.05,8.95-20,20-20c5.52,0,10.52,2.24,14.14,5.86   C459.76,19.48,462,24.48,462,30z" style="fill:#C0E3F0;"/></g><path d="M319,462v21.2c0,10.38-8.42,18.8-18.8,18.8H49.57c-14.29,0-28.34-7.2-34.69-20  c-3.55-7.16-5.04-14.3-4.87-21.03C10.56,439.35,28.26,422,50,422c22.09,0,40,17.91,40,40H319z" style="fill:#4DBBEB;"/><rect height="120" style="fill:#FEB756;" width="189" x="130" y="156"/><path d="M50,369c5.52,0,10-4.48,10-10s-4.48-10-10-10s-10,4.48-10,10S44.48,369,50,369z"/><path d="M442,246c-5.523,0-10,4.478-10,10v83c0,5.522,4.477,10,10,10s10-4.478,10-10v-83C452,250.478,447.523,246,442,246z"/><path d="M503.211,91.789c-3.551-3.551-7.835-6.102-12.509-7.512c-2.774-9.108-9.772-16.389-18.703-19.557V30  c0-8.01-3.121-15.542-8.789-21.211C457.543,3.121,450.01,0,442,0c-16.542,0-30,13.458-30,30v34.72c-11.639,4.128-20,15.243-20,28.28  v304.78c0,17.818,5.228,35.079,15.119,49.916l24.957,37.444L432,501.955c-0.025,5.522,4.432,10.02,9.955,10.045  c0.016,0,0.03,0,0.046,0c5.501,0,9.974-4.448,9.999-9.955l0.077-17.133l24.804-37.214C486.772,432.859,492,415.599,492,397.78  v-153.5c11.639-4.128,20-15.243,20-28.28V113C512,104.99,508.879,97.458,503.211,91.789z M472,372h-60V166h40v50  c0,13.036,8.361,24.152,20,28.28V372z M452,146h-40v-23h40V146z M472,113c0-5.514,4.486-10,10-10c2.668,0,5.179,1.041,7.068,2.931  c1.891,1.891,2.932,4.401,2.932,7.069v73h-20V113z M432,30c0-5.514,4.486-10,10-10c2.668,0,5.179,1.041,7.068,2.931  C450.959,24.821,452,27.332,452,30v33h-20V30z M422,83h40c2.758,0,5.258,1.122,7.069,2.934c-7.119,3.415-12.686,9.559-15.349,17.066  H412V93C412,87.486,416.486,83,422,83z M460.239,436.604L442,463.97l-18.239-27.366C416.067,425.062,412,411.637,412,397.78V392h60  v5.78C472,411.637,467.933,425.062,460.239,436.604z M482,226c-5.514,0-10-4.486-10-10v-10h20v10C492,221.514,487.514,226,482,226z"/><path d="M342,43H90c-0.009,0-0.017,0.001-0.026,0.001C80.843,30.865,66.323,23,50,23c-13.35,0-25.904,5.202-35.351,14.648  C5.203,47.096,0,59.65,0,73v388c0,0.111,0.013,0.219,0.017,0.329c-0.114,8.512,1.861,16.957,5.905,25.115  C13.624,501.969,30.756,512,49.57,512H300.2c15.88,0,28.8-12.92,28.8-28.8V472h13c16.542,0,30-13.458,30-30V73  C372,56.458,358.542,43,342,43z M28.791,51.791C34.46,46.122,41.993,43,50,43c16.542,0,30,13.458,30,30v349.027  C71.637,415.735,61.247,412,50,412c-10.948,0-21.385,3.523-30,10.008V73C20,64.992,23.122,57.46,28.791,51.791z M309,483.2  c0,4.853-3.948,8.8-8.8,8.8H49.57c-11.278,0-21.378-5.67-25.73-14.441c-2.681-5.407-3.97-10.903-3.833-16.334  C20.417,445.11,33.872,432,50,432c16.542,0,30,13.458,30,30c0,5.522,4.477,10,10,10h219V483.2z M352,442c0,5.514-4.486,10-10,10H100  V63h242c5.514,0,10,4.486,10,10V442z"/><path d="M50,329c5.523,0,10-4.478,10-10V156c0-5.522-4.477-10-10-10s-10,4.478-10,10v163C40,324.522,44.477,329,50,329z"/><path d="M319,146H130c-5.523,0-10,4.478-10,10v120c0,5.522,4.477,10,10,10h189c5.523,0,10-4.478,10-10V156  C329,150.478,324.523,146,319,146z M309,266H140V166h169V266z"/><path d="M173,123h106c5.523,0,10-4.478,10-10s-4.477-10-10-10H173c-5.523,0-10,4.478-10,10S167.477,123,173,123z"/><path d="M183,246c5.523,0,10-4.478,10-10v-20c0-5.522-4.477-10-10-10s-10,4.478-10,10v20C173,241.522,177.477,246,183,246z"/><path d="M226,246c5.523,0,10-4.478,10-10v-31.25c0-5.522-4.477-10-10-10s-10,4.478-10,10V236C216,241.522,220.477,246,226,246z"/><path d="M266,246c5.523,0,10-4.478,10-10v-40c0-5.522-4.477-10-10-10s-10,4.478-10,10v40C256,241.522,260.477,246,266,246z"/><path d="M319,329H130c-5.523,0-10,4.478-10,10s4.477,10,10,10h189c5.523,0,10-4.478,10-10S324.523,329,319,329z"/><path d="M319,392H130c-5.523,0-10,4.478-10,10s4.477,10,10,10h189c5.523,0,10-4.478,10-10S324.523,392,319,392z"/><g/><g/><g/><g/><g/><g/><g/><g/><g/><g/><g/><g/><g/><g/><g/></svg>